#!OML:ASF F:\VICON\USERDATA\INSTALL\rory3\rory3.ASF
:FULLY-SPECIFIED
:DEGREES
294
root 0.12858 17.9614 27.492 -4.81182 -0.672626 -4.8132
lowerback 9.70161 0.248349 3.59232
upperback 1.47676 0.811453 2.50831
thorax -3.89129 0.367108 0.481045
lowerneck -15.8361 -2.91464 -1.7992
upperneck 22.2014 -3.63774 0.129783
head 9.68067 -1.8263 -0.124063
rclavicle -7.66563e-015 -1.51076e-014
rhumerus -26.0333 -17.2453 -80.5756
rradius 25.5612
rwrist 4.50184
rhand -17.781 18.3444
rfingers 7.12502
rthumb 8.48164 -11.4652
lclavicle -7.66563e-015 -1.51076e-014
lhumerus -30.2176 4.10472 84.8763
lradius 24.3815
lwrist 6.58223
lhand -29.4728 21.1122
lfingers 7.12502
lthumb -2.8083 51.0734
rfemur -9.38233 7.16766 31.6817
rtibia 32.6595
rfoot -13.6415 -8.41781
rtoes 9.72005
lfemur -20.0253 3.88767 -14.359
ltibia 71.0451
lfoot -2.69438 -6.08971
ltoes -2.95794
295
root 0.13055 17.9479 27.6524 -4.75329 -0.725954 -5.08786
lowerback 9.86968 0.256994 3.86732
upperback 1.32533 0.869103 2.52603
thorax -4.13818 0.387234 0.336942
lowerneck -15.0883 -2.91473 -1.86978
upperneck 21.6169 -3.67041 0.302637
head 9.34121 -1.83255 -0.0395479
rclavicle 3.26752e-015 -1.98785e-015
rhumerus -26.1866 -16.2179 -81.008
rradius 26.4277
rwrist 3.56823
rhand -18.1449 20.9879
rfingers 7.12502
rthumb 8.13047 -8.83564
lclavicle 3.26752e-015 -1.98785e-015
lhumerus -30.6111 4.38214 84.6729
lradius 24.9352
lwrist 4.72644
lhand -26.914 28.3574
lfingers 7.12502
lthumb -0.337006 58.3369
rfemur -8.86368 7.346 32.0982
rtibia 32.7003
rfoot -14.2578 -8.84542
rtoes 8.54765
lfemur -21.188 3.89901 -14.1273
ltibia 70.3016
lfoot -3.4454 -5.29525
ltoes -4.42119
296
root 0.132031 17.9308 27.8069 -4.63867 -0.884709 -5.37033
lowerback 10.1414 0.34421 4.19433
upperback 1.13471 1.04629 2.53289
thorax -4.47962 0.462517 0.13509
lowerneck -14.69 -3.02022 -2.01492
upperneck 21.4238 -3.83772 0.51438
head 9.20976 -1.9014 0.0443025
rclavicle 7.29291e-015 2.0276e-014
rhumerus -26.3362 -15.1992 -81.3729
rradius 27.3421
rwrist 2.68995
rhand -18.4999 21.9688
rfingers 7.12502
rthumb 7.78787 -7.86775
lclavicle 7.29291e-015 2.0276e-014
lhumerus -31.1472 4.20999 84.7552
lradius 24.5015
lwrist 5.65276
lhand -28.9358 21.5197
lfingers 7.12502
lthumb -2.28969 51.4871
rfemur -8.41958 7.55148 32.5195
rtibia 32.7371
rfoot -14.8011 -9.09324
rtoes 8.35422
lfemur -22.4148 3.92462 -13.8864
ltibia 69.3616
lfoot -3.93182 -4.35606
ltoes -6.37929
297
root 0.138464 17.9159 27.9654 -4.57124 -0.933344 -5.61245
lowerback 10.2102 0.364349 4.50567
upperback 1.13568 1.11389 2.56907
thorax -4.51013 0.490024 -0.0113659
lowerneck -14.8071 -3.04816 -2.02208
upperneck 21.4223 -3.87102 0.510142
head 9.23148 -1.91726 0.0380308
rclavicle -5.59082e-016 -3.97569e-016
rhumerus -26.1483 -14.4702 -81.6481
rradius 28.0247
rwrist 2.34771
rhand -18.8264 22.9722
rfingers 7.12502
rthumb 7.47276 -6.87582
lclavicle -5.59082e-016 -3.97569e-016
lhumerus -31.6005 4.11561 84.8722
lradius 24.7599
lwrist 5.963
lhand -29.1418 20.2231
lfingers 7.12502
lthumb -2.48869 50.1883
rfemur -7.88835 7.53129 32.8605
rtibia 32.7649
rfoot -15.3477 -9.27336
rtoes 8.03446
lfemur -23.3712 3.83883 -13.7077
ltibia 68.221
lfoot -4.4179 -3.27511
ltoes -6.6482
298
root 0.1483 17.906 28.1269 -4.45577 -0.872369 -5.57044
lowerback 10.0697 0.36738 4.55949
upperback 1.24837 1.10545 2.49746
thorax -4.31145 0.489103 -0.113531
lowerneck -15.2602 -3.05433 -1.89266
upperneck 21.5283 -3.88305 0.423615
head 9.34785 -1.91906 -0.0229372
rclavicle 2.41026e-015 1.70955e-014
rhumerus -25.7837 -13.8768 -82.0065
rradius 28.8368
rwrist 1.82295
rhand -18.6225 24.1151
rfingers 7.12502
rthumb 7.66955 -5.72584
lclavicle 2.41026e-015 1.70955e-014
lhumerus -31.7216 4.34542 84.8272
lradius 24.9466
lwrist 5.8093
lhand -28.8381 20.3615
lfingers 7.12502
lthumb -2.19532 50.33
rfemur -7.40111 7.53745 32.8635
rtibia 32.7928
rfoot -15.8989 -9.45791
rtoes 8.03299
lfemur -24.2815 3.60254 -13.8929
ltibia 66.9148
lfoot -5.01627 -2.11905
ltoes -6.35199
299
root 0.159244 17.8999 28.2912 -4.28619 -0.968766 -5.49886
lowerback 10.0718 0.432704 4.60131
upperback 1.1766 1.19674 2.42088
thorax -4.38201 0.530817 -0.22928
lowerneck -15.546 -3.12007 -1.87886
upperneck 21.8236 -3.96662 0.382442
head 9.5042 -1.95899 -0.0575477
rclavicle -9.49197e-015 2.98177e-015
rhumerus -25.5148 -13.466 -82.1989
rradius 29.2468
rwrist 1.6605
rhand -18.6218 24.2427
rfingers 7.12502
rthumb 7.6702 -5.59819
lclavicle -9.49197e-015 2.98177e-015
lhumerus -32.0838 4.6558 84.7381
lradius 24.9659
lwrist 5.62458
lhand -29.466 18.6948
lfingers 7.12502
lthumb -2.80179 48.6561
rfemur -6.93001 7.6926 32.8306
rtibia 32.7362
rfoot -16.4211 -9.52259
rtoes 8.03568
lfemur -25.1124 3.42365 -14.0909
ltibia 65.3458
lfoot -5.31154 -0.960468
ltoes -6.07397
300
root 0.166831 17.8809 28.4546 -4.16269 -1.10356 -5.74859
lowerback 10.1467 0.518882 4.87269
upperback 1.09344 1.35332 2.48043
thorax -4.50062 0.600481 -0.341412
lowerneck -15.5167 -3.15073 -1.94966
upperneck 21.7888 -3.99839 0.413753
head 9.48931 -1.9762 -0.038268
rclavicle 1.2188e-014 1.19271e-014
rhumerus -25.423 -12.79 -82.3509
rradius 29.8475
rwrist 0.999596
rhand -18.7881 24.1215
rfingers 7.12502
rthumb 7.50971 -5.72521
lclavicle 1.2188e-014 1.19271e-014
lhumerus -32.4474 4.94177 84.7228
lradius 24.8829
lwrist 5.53145
lhand -30.1191 17.3856
lfingers 7.12502
lthumb -3.43246 47.3377
rfemur -6.41923 7.81005 33.1764
rtibia 32.6783
rfoot -17.0923 -9.67348
rtoes 8.01932
lfemur -25.6409 3.39415 -13.8409
ltibia 63.8601
lfoot -5.69215 0.0156777
ltoes -5.05153
301
root 0.172194 17.8727 28.6246 -4.10765 -1.23862 -6.0615
lowerback 9.98864 0.570412 5.17534
upperback 1.29431 1.43618 2.55182
thorax -4.19316 0.64559 -0.44408
lowerneck -15.6523 -3.06605 -1.85344
upperneck 21.3638 -3.89203 0.399147
head 9.36191 -1.92075 -0.0439214
rclavicle -5.67779e-015 -1.23246e-014
rhumerus -24.9284 -12.3057 -82.6354
rradius 30.5269
rwrist 0.431496
rhand -18.834 23.85
rfingers 7.12502
rthumb 7.46543 -5.99828
lclavicle -5.67779e-015 -1.23246e-014
lhumerus -32.3607 5.20092 84.6772
lradius 24.8437
lwrist 5.37895
lhand -30.0073 17.1942
lfingers 7.12502
lthumb -3.32449 47.148
rfemur -5.76839 7.84777 33.5958
rtibia 32.5707
rfoot -17.6998 -9.77348
rtoes 8.05481
lfemur -26.2601 3.25032 -13.5104
ltibia 62.0039
lfoot -5.54258 0.871376
ltoes -2.91708
302
root 0.18185 17.8627 28.7927 -4.06904 -1.34737 -5.98149
lowerback 9.87658 0.676443 5.19954
upperback 1.42817 1.56052 2.47655
thorax -3.98215 0.712508 -0.54956
lowerneck -15.5496 -3.06106 -1.80133
upperneck 20.9192 -3.9074 0.456611
head 9.18847 -1.91902 -0.0289625
rclavicle -1.07841e-014 2.38542e-014
rhumerus -24.2844 -12.2162 -82.7939
rradius 30.641
rwrist 0.313381
rhand -19.177 23.85
rfingers 7.12502
rthumb 7.13427 -6.00972
lclavicle -1.07841e-014 2.38542e-014
lhumerus -32.4296 5.4405 84.6043
lradius 24.9916
lwrist 5.06118
lhand -29.2546 16.506
lfingers 7.12502
lthumb -2.59756 46.47
rfemur -5.09562 7.824 33.5487
rtibia 32.393
rfoot -18.0748 -9.79966
rtoes 8.04954
lfemur -26.5215 3.13777 -13.6635
ltibia 60.1712
lfoot -5.92542 1.88341
ltoes -1.69077
303
root 0.191409 17.8526 28.9551 -3.94769 -1.37775 -5.91827
lowerback 10.0958 0.734637 5.19954
upperback 1.21553 1.6624 2.41437
thorax -4.32038 0.752078 -0.63307
lowerneck -15.2665 -3.1325 -1.86366
upperneck 20.8905 -4.01322 0.529002
head 9.13067 -1.96708 -0.00216852
rclavicle 2.36057e-016 6.55989e-015
rhumerus -24.2248 -11.9076 -82.8491
rradius 30.7817
rwrist 0.0695833
rhand -19.2524 24.1128
rfingers 7.12502
rthumb 7.06155 -5.74941
lclavicle 2.36057e-016 6.55989e-015
lhumerus -33.0241 5.52529 84.6034
lradius 25.1895
lwrist 5.39056
lhand -29.0044 15.5604
lfingers 7.12502
lthumb -2.35598 45.5271
rfemur -4.51938 7.75059 33.4809
rtibia 32.1694
rfoot -18.6213 -9.74487
rtoes 8.375
lfemur -26.9541 2.86626 -13.7687
ltibia 58.0666
lfoot -6.18181 2.68217
ltoes -1.3477
